<svg width="158" height="48" viewBox="0 0 158 48" fill="none" xmlns="http://www.w3.org/2000/svg">
<path d="M9.35479 32.3667L0.600264 5.10265C-4.59776e-05 3.05159 1.0505 0.850456 3.10156 0.150094C3.50176 0.100069 3.90197 1.55595e-05 4.25215 1.55595e-05C5.95303 1.55595e-05 7.50383 1.05056 8.00409 2.65139L13.0567 18.4596L18.2094 2.65139C18.7596 1.05056 20.2104 1.55595e-05 21.9113 1.55595e-05C23.6122 1.55595e-05 25.0629 1.05056 25.6132 2.65139L30.6658 18.4596L35.7184 2.65139C36.3187 1.05056 37.8195 1.55595e-05 39.4703 1.55595e-05C39.8705 1.55595e-05 40.2708 0.100069 40.671 0.150094C42.672 0.850456 43.8226 3.05159 43.1723 5.10265L34.3677 32.3667C33.9175 33.8675 32.2666 35.1182 30.6158 35.0181C28.9649 35.0181 27.4641 33.8675 26.9639 32.3667L21.9113 16.5586L16.7586 32.3667C16.3084 33.8675 14.6575 35.1182 13.0567 35.0181C11.3558 35.0181 9.9551 33.8675 9.35479 32.3667ZM62.073 21.9614C62.073 18.7097 59.4217 16.0583 56.22 16.0583C52.9183 16.0583 50.317 18.7097 50.317 21.9614C50.317 25.2631 52.9183 27.8644 56.22 27.8644C59.4217 27.8644 62.073 25.2631 62.073 21.9614ZM43.2133 21.9614C43.2133 14.7076 49.0663 8.90462 56.22 8.90462C63.4237 8.90462 69.2267 14.7076 69.2267 21.9614V31.4663C69.2267 33.4173 67.726 34.9681 65.6249 34.9681C64.3742 34.9681 63.3237 34.3678 62.7234 33.3673C60.7223 34.3678 58.5712 34.9681 56.22 34.9681C49.0663 34.9681 43.2133 29.1651 43.2133 21.9614ZM117.173 3.50183C117.173 1.50079 118.823 1.55595e-05 120.724 1.55595e-05C122.825 1.55595e-05 124.426 1.55082 124.426 3.50183V8.90462H127.778C129.729 8.90462 131.28 10.5054 131.28 12.5065C131.28 14.3574 129.729 16.0583 127.778 16.0583H124.426V31.4663C124.426 33.4173 122.825 35.0181 120.724 35.0181C118.823 35.0181 117.173 33.4173 117.173 31.4663V16.0583H113.821C111.87 16.0583 110.319 14.3574 110.319 12.5065C110.319 10.5054 111.87 8.90462 113.821 8.90462H117.173V3.50183ZM140.809 37.6695C141.809 39.2703 143.71 40.3709 145.711 40.3709C147.812 40.3709 149.663 39.2703 150.714 37.6695C151.414 36.5689 152.565 35.9186 153.765 35.9186C154.366 35.9186 155.016 36.1187 155.616 36.4689C157.317 37.6194 157.767 39.7706 156.767 41.4714C154.416 45.0733 150.364 47.4745 145.711 47.4745C141.109 47.4745 137.107 45.0733 134.755 41.4714C133.705 39.7706 134.205 37.6194 135.856 36.4689C136.406 36.1187 137.057 35.9186 137.657 35.9186C138.908 35.9186 140.058 36.5689 140.809 37.6695ZM133.705 22.9619V12.5065C133.705 10.5555 135.256 8.90462 137.257 8.90462C139.258 8.90462 140.859 10.5555 140.859 12.5065V22.9619C140.859 25.6633 143.06 27.8644 145.711 27.8644C148.463 27.8644 150.614 25.6633 150.614 22.9619V12.5065C150.614 10.5555 152.164 8.90462 154.166 8.90462C156.117 8.90462 157.717 10.5555 157.717 12.5065V22.9619C157.717 29.5653 152.315 34.9681 145.711 34.9681C139.108 34.9681 133.705 29.5653 133.705 22.9619Z" fill="#232325"/>
<path d="M99.5439 17.5091C99.5439 12.1063 95.1417 7.704 89.8389 7.704C84.4361 7.704 80.1339 12.1063 80.1339 17.5091C80.1339 22.8618 84.4361 27.2141 89.8389 27.2141C95.1417 27.2141 99.5439 22.8618 99.5439 17.5091ZM72.2799 17.5091C72.2799 7.75402 80.1839 1.55595e-05 89.8389 1.55595e-05C99.5439 1.55595e-05 107.398 7.75402 107.398 17.5091C107.398 20.8608 106.347 24.1125 104.647 26.8139L107.948 30.2156C109.549 31.7164 109.549 34.1176 107.948 35.6684C107.198 36.4689 106.247 36.819 105.247 36.819C104.196 36.819 103.296 36.4689 102.495 35.6684L99.1437 32.3667C96.4423 34.0676 93.2907 35.0181 89.8389 35.0181C80.1839 35.0181 72.2799 27.2141 72.2799 17.5091Z" fill="#00E083"/>
</svg>
